<mxfile host="app.diagrams.net" modified="2024-06-03T23:26:18.671Z" agent="Mozilla/5.0 (Windows NT 10.0; Win64; x64) AppleWebKit/537.36 (KHTML, like Gecko) Chrome/125.0.0.0 Safari/537.36" etag="wQrYG_BaSGNRNRtbvZUO" version="24.4.13" type="device">
  <diagram name="Page-1" id="qj9vNkG9iFOLwWXi-k8k">
    <mxGraphModel dx="1750" dy="870" grid="1" gridSize="10" guides="1" tooltips="1" connect="1" arrows="1" fold="1" page="1" pageScale="1" pageWidth="1100" pageHeight="850" math="0" shadow="0">
      <root>
        <mxCell id="0" />
        <mxCell id="1" parent="0" />
        <mxCell id="joybEDF3Ez93QYE4cwcz-77" value="" style="edgeStyle=orthogonalEdgeStyle;rounded=0;orthogonalLoop=1;jettySize=auto;html=1;" parent="1" source="phihhHGXAHOtCvUvexUm-1" target="phihhHGXAHOtCvUvexUm-2" edge="1">
          <mxGeometry relative="1" as="geometry">
            <Array as="points">
              <mxPoint x="170" y="245" />
              <mxPoint x="170" y="245" />
            </Array>
          </mxGeometry>
        </mxCell>
        <mxCell id="phihhHGXAHOtCvUvexUm-1" value="Browser" style="rounded=1;whiteSpace=wrap;html=1;" parent="1" vertex="1">
          <mxGeometry x="120" y="180" width="120" height="60" as="geometry" />
        </mxCell>
        <mxCell id="phihhHGXAHOtCvUvexUm-16" value="" style="edgeStyle=orthogonalEdgeStyle;rounded=0;orthogonalLoop=1;jettySize=auto;html=1;" parent="1" source="phihhHGXAHOtCvUvexUm-2" target="phihhHGXAHOtCvUvexUm-3" edge="1">
          <mxGeometry relative="1" as="geometry" />
        </mxCell>
        <mxCell id="joybEDF3Ez93QYE4cwcz-78" value="" style="edgeStyle=orthogonalEdgeStyle;rounded=0;orthogonalLoop=1;jettySize=auto;html=1;" parent="1" source="phihhHGXAHOtCvUvexUm-2" target="phihhHGXAHOtCvUvexUm-1" edge="1">
          <mxGeometry relative="1" as="geometry">
            <Array as="points">
              <mxPoint x="190" y="265" />
              <mxPoint x="190" y="265" />
            </Array>
          </mxGeometry>
        </mxCell>
        <mxCell id="joybEDF3Ez93QYE4cwcz-80" value="" style="edgeStyle=orthogonalEdgeStyle;rounded=0;orthogonalLoop=1;jettySize=auto;html=1;" parent="1" source="phihhHGXAHOtCvUvexUm-2" target="joybEDF3Ez93QYE4cwcz-34" edge="1">
          <mxGeometry relative="1" as="geometry" />
        </mxCell>
        <mxCell id="phihhHGXAHOtCvUvexUm-2" value="API endpoint" style="rounded=1;whiteSpace=wrap;html=1;" parent="1" vertex="1">
          <mxGeometry x="120" y="295" width="120" height="60" as="geometry" />
        </mxCell>
        <mxCell id="phihhHGXAHOtCvUvexUm-31" value="" style="edgeStyle=orthogonalEdgeStyle;rounded=0;orthogonalLoop=1;jettySize=auto;html=1;" parent="1" source="phihhHGXAHOtCvUvexUm-3" target="phihhHGXAHOtCvUvexUm-4" edge="1">
          <mxGeometry relative="1" as="geometry" />
        </mxCell>
        <mxCell id="joybEDF3Ez93QYE4cwcz-5" value="" style="edgeStyle=orthogonalEdgeStyle;rounded=0;orthogonalLoop=1;jettySize=auto;html=1;" parent="1" source="phihhHGXAHOtCvUvexUm-3" target="joybEDF3Ez93QYE4cwcz-1" edge="1">
          <mxGeometry relative="1" as="geometry" />
        </mxCell>
        <mxCell id="phihhHGXAHOtCvUvexUm-3" value="Business Service" style="rounded=1;whiteSpace=wrap;html=1;" parent="1" vertex="1">
          <mxGeometry x="270" y="295" width="120" height="60" as="geometry" />
        </mxCell>
        <mxCell id="phihhHGXAHOtCvUvexUm-4" value="Domain Model" style="rounded=1;whiteSpace=wrap;html=1;" parent="1" vertex="1">
          <mxGeometry x="430" y="255" width="120" height="60" as="geometry" />
        </mxCell>
        <mxCell id="joybEDF3Ez93QYE4cwcz-4" value="" style="edgeStyle=orthogonalEdgeStyle;rounded=0;orthogonalLoop=1;jettySize=auto;html=1;" parent="1" source="phihhHGXAHOtCvUvexUm-5" target="joybEDF3Ez93QYE4cwcz-1" edge="1">
          <mxGeometry relative="1" as="geometry" />
        </mxCell>
        <mxCell id="joybEDF3Ez93QYE4cwcz-51" value="" style="edgeStyle=orthogonalEdgeStyle;rounded=0;orthogonalLoop=1;jettySize=auto;html=1;" parent="1" source="phihhHGXAHOtCvUvexUm-5" target="phihhHGXAHOtCvUvexUm-6" edge="1">
          <mxGeometry relative="1" as="geometry">
            <Array as="points">
              <mxPoint x="480" y="535" />
              <mxPoint x="480" y="535" />
            </Array>
          </mxGeometry>
        </mxCell>
        <mxCell id="phihhHGXAHOtCvUvexUm-5" value="Repository" style="rounded=1;whiteSpace=wrap;html=1;" parent="1" vertex="1">
          <mxGeometry x="430" y="435" width="120" height="60" as="geometry" />
        </mxCell>
        <mxCell id="joybEDF3Ez93QYE4cwcz-53" value="" style="edgeStyle=orthogonalEdgeStyle;rounded=0;orthogonalLoop=1;jettySize=auto;html=1;" parent="1" source="phihhHGXAHOtCvUvexUm-6" target="phihhHGXAHOtCvUvexUm-5" edge="1">
          <mxGeometry relative="1" as="geometry">
            <Array as="points">
              <mxPoint x="500" y="525" />
              <mxPoint x="500" y="525" />
            </Array>
          </mxGeometry>
        </mxCell>
        <mxCell id="phihhHGXAHOtCvUvexUm-6" value="DB" style="rounded=1;whiteSpace=wrap;html=1;" parent="1" vertex="1">
          <mxGeometry x="430" y="545" width="120" height="60" as="geometry" />
        </mxCell>
        <mxCell id="joybEDF3Ez93QYE4cwcz-6" value="" style="edgeStyle=orthogonalEdgeStyle;rounded=0;orthogonalLoop=1;jettySize=auto;html=1;" parent="1" source="phihhHGXAHOtCvUvexUm-13" target="joybEDF3Ez93QYE4cwcz-1" edge="1">
          <mxGeometry relative="1" as="geometry" />
        </mxCell>
        <mxCell id="joybEDF3Ez93QYE4cwcz-7" value="" style="edgeStyle=orthogonalEdgeStyle;rounded=0;orthogonalLoop=1;jettySize=auto;html=1;" parent="1" source="phihhHGXAHOtCvUvexUm-13" target="phihhHGXAHOtCvUvexUm-4" edge="1">
          <mxGeometry relative="1" as="geometry" />
        </mxCell>
        <mxCell id="joybEDF3Ez93QYE4cwcz-14" value="" style="edgeStyle=orthogonalEdgeStyle;rounded=0;orthogonalLoop=1;jettySize=auto;html=1;" parent="1" source="phihhHGXAHOtCvUvexUm-13" target="joybEDF3Ez93QYE4cwcz-8" edge="1">
          <mxGeometry relative="1" as="geometry" />
        </mxCell>
        <mxCell id="phihhHGXAHOtCvUvexUm-13" value="Crawl App" style="rounded=1;whiteSpace=wrap;html=1;" parent="1" vertex="1">
          <mxGeometry x="600" y="295" width="120" height="60" as="geometry" />
        </mxCell>
        <mxCell id="joybEDF3Ez93QYE4cwcz-1" value="IRepository" style="rounded=1;whiteSpace=wrap;html=1;" parent="1" vertex="1">
          <mxGeometry x="430" y="345" width="120" height="60" as="geometry" />
        </mxCell>
        <mxCell id="joybEDF3Ez93QYE4cwcz-8" value="ICrawler" style="rounded=1;whiteSpace=wrap;html=1;" parent="1" vertex="1">
          <mxGeometry x="600" y="405" width="120" height="60" as="geometry" />
        </mxCell>
        <mxCell id="joybEDF3Ez93QYE4cwcz-23" value="" style="edgeStyle=orthogonalEdgeStyle;rounded=0;orthogonalLoop=1;jettySize=auto;html=1;" parent="1" source="joybEDF3Ez93QYE4cwcz-10" target="joybEDF3Ez93QYE4cwcz-8" edge="1">
          <mxGeometry relative="1" as="geometry" />
        </mxCell>
        <mxCell id="joybEDF3Ez93QYE4cwcz-26" value="" style="edgeStyle=orthogonalEdgeStyle;rounded=0;orthogonalLoop=1;jettySize=auto;html=1;" parent="1" source="joybEDF3Ez93QYE4cwcz-10" target="joybEDF3Ez93QYE4cwcz-25" edge="1">
          <mxGeometry relative="1" as="geometry" />
        </mxCell>
        <mxCell id="joybEDF3Ez93QYE4cwcz-43" value="" style="edgeStyle=orthogonalEdgeStyle;rounded=0;orthogonalLoop=1;jettySize=auto;html=1;" parent="1" source="joybEDF3Ez93QYE4cwcz-10" target="joybEDF3Ez93QYE4cwcz-41" edge="1">
          <mxGeometry relative="1" as="geometry">
            <Array as="points">
              <mxPoint x="810" y="310" />
              <mxPoint x="810" y="310" />
            </Array>
          </mxGeometry>
        </mxCell>
        <mxCell id="joybEDF3Ez93QYE4cwcz-10" value="Crawler1" style="rounded=1;whiteSpace=wrap;html=1;" parent="1" vertex="1">
          <mxGeometry x="760" y="350" width="120" height="60" as="geometry" />
        </mxCell>
        <mxCell id="joybEDF3Ez93QYE4cwcz-24" value="" style="edgeStyle=orthogonalEdgeStyle;rounded=0;orthogonalLoop=1;jettySize=auto;html=1;" parent="1" source="joybEDF3Ez93QYE4cwcz-11" target="joybEDF3Ez93QYE4cwcz-8" edge="1">
          <mxGeometry relative="1" as="geometry" />
        </mxCell>
        <mxCell id="joybEDF3Ez93QYE4cwcz-27" value="" style="edgeStyle=orthogonalEdgeStyle;rounded=0;orthogonalLoop=1;jettySize=auto;html=1;" parent="1" source="joybEDF3Ez93QYE4cwcz-11" target="joybEDF3Ez93QYE4cwcz-25" edge="1">
          <mxGeometry relative="1" as="geometry" />
        </mxCell>
        <mxCell id="joybEDF3Ez93QYE4cwcz-47" value="" style="edgeStyle=orthogonalEdgeStyle;rounded=0;orthogonalLoop=1;jettySize=auto;html=1;" parent="1" source="joybEDF3Ez93QYE4cwcz-11" target="joybEDF3Ez93QYE4cwcz-42" edge="1">
          <mxGeometry relative="1" as="geometry">
            <Array as="points">
              <mxPoint x="830" y="550" />
              <mxPoint x="830" y="550" />
            </Array>
          </mxGeometry>
        </mxCell>
        <mxCell id="joybEDF3Ez93QYE4cwcz-11" value="Crawler2" style="rounded=1;whiteSpace=wrap;html=1;" parent="1" vertex="1">
          <mxGeometry x="760" y="460" width="120" height="60" as="geometry" />
        </mxCell>
        <mxCell id="joybEDF3Ez93QYE4cwcz-25" value="CrawBase" style="rounded=1;whiteSpace=wrap;html=1;" parent="1" vertex="1">
          <mxGeometry x="920" y="410" width="120" height="60" as="geometry" />
        </mxCell>
        <mxCell id="joybEDF3Ez93QYE4cwcz-34" value="IFileExportService" style="rounded=1;whiteSpace=wrap;html=1;" parent="1" vertex="1">
          <mxGeometry x="120" y="385" width="120" height="60" as="geometry" />
        </mxCell>
        <mxCell id="joybEDF3Ez93QYE4cwcz-37" value="" style="edgeStyle=orthogonalEdgeStyle;rounded=0;orthogonalLoop=1;jettySize=auto;html=1;" parent="1" source="joybEDF3Ez93QYE4cwcz-35" target="joybEDF3Ez93QYE4cwcz-34" edge="1">
          <mxGeometry relative="1" as="geometry" />
        </mxCell>
        <mxCell id="joybEDF3Ez93QYE4cwcz-60" value="" style="edgeStyle=orthogonalEdgeStyle;rounded=0;orthogonalLoop=1;jettySize=auto;html=1;" parent="1" source="joybEDF3Ez93QYE4cwcz-35" target="joybEDF3Ez93QYE4cwcz-59" edge="1">
          <mxGeometry relative="1" as="geometry" />
        </mxCell>
        <mxCell id="joybEDF3Ez93QYE4cwcz-35" value="PdfExportService" style="rounded=1;whiteSpace=wrap;html=1;" parent="1" vertex="1">
          <mxGeometry x="40" y="485" width="120" height="60" as="geometry" />
        </mxCell>
        <mxCell id="joybEDF3Ez93QYE4cwcz-38" value="" style="edgeStyle=orthogonalEdgeStyle;rounded=0;orthogonalLoop=1;jettySize=auto;html=1;" parent="1" source="joybEDF3Ez93QYE4cwcz-36" target="joybEDF3Ez93QYE4cwcz-34" edge="1">
          <mxGeometry relative="1" as="geometry" />
        </mxCell>
        <mxCell id="joybEDF3Ez93QYE4cwcz-61" value="" style="edgeStyle=orthogonalEdgeStyle;rounded=0;orthogonalLoop=1;jettySize=auto;html=1;" parent="1" source="joybEDF3Ez93QYE4cwcz-36" target="joybEDF3Ez93QYE4cwcz-59" edge="1">
          <mxGeometry relative="1" as="geometry" />
        </mxCell>
        <mxCell id="joybEDF3Ez93QYE4cwcz-36" value="TxtExportService" style="rounded=1;whiteSpace=wrap;html=1;" parent="1" vertex="1">
          <mxGeometry x="190" y="485" width="120" height="60" as="geometry" />
        </mxCell>
        <mxCell id="joybEDF3Ez93QYE4cwcz-44" value="" style="edgeStyle=orthogonalEdgeStyle;rounded=0;orthogonalLoop=1;jettySize=auto;html=1;" parent="1" source="joybEDF3Ez93QYE4cwcz-41" target="joybEDF3Ez93QYE4cwcz-10" edge="1">
          <mxGeometry relative="1" as="geometry">
            <Array as="points">
              <mxPoint x="830" y="310" />
              <mxPoint x="830" y="310" />
            </Array>
          </mxGeometry>
        </mxCell>
        <mxCell id="joybEDF3Ez93QYE4cwcz-41" value="Source1" style="rounded=1;whiteSpace=wrap;html=1;" parent="1" vertex="1">
          <mxGeometry x="760" y="240" width="120" height="60" as="geometry" />
        </mxCell>
        <mxCell id="joybEDF3Ez93QYE4cwcz-46" value="" style="edgeStyle=orthogonalEdgeStyle;rounded=0;orthogonalLoop=1;jettySize=auto;html=1;" parent="1" source="joybEDF3Ez93QYE4cwcz-42" target="joybEDF3Ez93QYE4cwcz-11" edge="1">
          <mxGeometry relative="1" as="geometry">
            <Array as="points">
              <mxPoint x="810" y="560" />
              <mxPoint x="810" y="560" />
            </Array>
          </mxGeometry>
        </mxCell>
        <mxCell id="joybEDF3Ez93QYE4cwcz-42" value="Source2" style="rounded=1;whiteSpace=wrap;html=1;" parent="1" vertex="1">
          <mxGeometry x="760" y="570" width="120" height="60" as="geometry" />
        </mxCell>
        <mxCell id="joybEDF3Ez93QYE4cwcz-59" value="ExportServiceBase" style="rounded=1;whiteSpace=wrap;html=1;" parent="1" vertex="1">
          <mxGeometry x="120" y="585" width="120" height="60" as="geometry" />
        </mxCell>
      </root>
    </mxGraphModel>
  </diagram>
</mxfile>
